<svg xmlns="http://www.w3.org/2000/svg" viewBox="0 0 32 38" role="img" aria-hidden="true">
  <g fill="#000">
    <path d="M9.4 21.6 14.3 24l-3.6 12.2-3-4.4-4.8 1.5 4.1-13.1z"/>
    <path d="m22.6 21.6-4.9 2.4 3.6 12.2 3-4.4 4.8 1.5-4.1-13.1z"/>
    <circle cx="16" cy="3.8" r="3.25"/>
    <circle cx="21.8" cy="5.4" r="3.25"/>
    <circle cx="26.1" cy="9.7" r="3.25"/>
    <circle cx="27.7" cy="15.5" r="3.25"/>
    <circle cx="26.1" cy="21.3" r="3.25"/>
    <circle cx="21.8" cy="25.6" r="3.25"/>
    <circle cx="16" cy="27.2" r="3.25"/>
    <circle cx="10.2" cy="25.6" r="3.25"/>
    <circle cx="5.9" cy="21.3" r="3.25"/>
    <circle cx="4.3" cy="15.5" r="3.25"/>
    <circle cx="5.9" cy="9.7" r="3.25"/>
    <circle cx="10.2" cy="5.4" r="3.25"/>
    <circle cx="16" cy="15.5" r="10.35"/>
  </g>
  <circle cx="16" cy="15.5" r="6.55" fill="none" stroke="#fff" stroke-width="3.35"/>
  <circle cx="16" cy="15.5" r="4.6" fill="#000"/>
  <circle cx="16" cy="15.5" r="3.25" fill="none" stroke="#fff" stroke-width="1.15"/>
</svg>
